<?xml version="1.0" encoding="UTF-8" standalone="no"?>
<!DOCTYPE svg PUBLIC "-//W3C//DTD SVG 1.1//EN"
 "http://www.w3.org/Graphics/SVG/1.1/DTD/svg11.dtd">
<!-- Generated by graphviz version 2.36.0 (20140111.2315)
 -->
<!-- Title: auto Pages: 1 -->
<svg width="224pt" height="332pt"
 viewBox="0.00 0.00 224.00 332.00" xmlns="http://www.w3.org/2000/svg" xmlns:xlink="http://www.w3.org/1999/xlink">
<g id="graph0" class="graph" transform="scale(1 1) rotate(0) translate(4 328)">
<title>auto</title>
<!-- 1cd909e05d33f0f6bc4ea1caf19b5749b434ceb3 -->
<g id="node1" class="node"><title>1cd909e05d33f0f6bc4ea1caf19b5749b434ceb3</title>
<ellipse fill="#9ccc66" stroke="black" cx="34" cy="-18" rx="34" ry="18"/>
<text text-anchor="middle" x="34" y="-14.3" font-family="Times New Roman,serif" font-size="14.00">1cd909e</text>
</g>
<!-- 4fa2aa96733ad000e2e14791e416c928052e865a -->
<g id="node2" class="node"><title>4fa2aa96733ad000e2e14791e416c928052e865a</title>
<ellipse fill="#9ccc66" stroke="black" cx="120" cy="-18" rx="34" ry="18"/>
<text text-anchor="middle" x="120" y="-14.3" font-family="Times New Roman,serif" font-size="14.00">4fa2aa9</text>
</g>
<!-- c5821ac9e04931231df30b2e78b4041e597e4ac9 -->
<g id="node3" class="node"><title>c5821ac9e04931231df30b2e78b4041e597e4ac9</title>
<ellipse fill="#9ccc66" stroke="black" cx="182" cy="-90" rx="34" ry="18"/>
<text text-anchor="middle" x="182" y="-86.3" font-family="Times New Roman,serif" font-size="14.00">c5821ac</text>
</g>
<!-- 13f45043c17ec5a98a8593724358e02bf638887b -->
<g id="node4" class="node"><title>13f45043c17ec5a98a8593724358e02bf638887b</title>
<ellipse fill="#bc9b8f" stroke="black" cx="132" cy="-162" rx="34" ry="18"/>
<text text-anchor="middle" x="132" y="-158.3" font-family="Times New Roman,serif" font-size="14.00">13f4504</text>
</g>
<!-- 13f45043c17ec5a98a8593724358e02bf638887b&#45;&gt;4fa2aa96733ad000e2e14791e416c928052e865a -->
<g id="edge2" class="edge"><title>13f45043c17ec5a98a8593724358e02bf638887b&#45;&gt;4fa2aa96733ad000e2e14791e416c928052e865a</title>
<path fill="none" stroke="black" d="M130.553,-143.871C128.507,-119.67 124.75,-75.2108 122.315,-46.3932"/>
<polygon fill="black" stroke="black" points="125.782,-45.859 121.453,-36.1893 118.807,-46.4485 125.782,-45.859"/>
</g>
<!-- 13f45043c17ec5a98a8593724358e02bf638887b&#45;&gt;c5821ac9e04931231df30b2e78b4041e597e4ac9 -->
<g id="edge1" class="edge"><title>13f45043c17ec5a98a8593724358e02bf638887b&#45;&gt;c5821ac9e04931231df30b2e78b4041e597e4ac9</title>
<path fill="none" stroke="black" d="M143.597,-144.765C149.844,-136.018 157.677,-125.052 164.637,-115.308"/>
<polygon fill="black" stroke="black" points="167.502,-117.319 170.466,-107.147 161.806,-113.25 167.502,-117.319"/>
</g>
<!-- 772eecc93f3d9c775c62f9667cade808a49b11a1 -->
<g id="node5" class="node"><title>772eecc93f3d9c775c62f9667cade808a49b11a1</title>
<ellipse fill="#bc9b8f" stroke="black" cx="46" cy="-90" rx="34" ry="18"/>
<text text-anchor="middle" x="46" y="-86.3" font-family="Times New Roman,serif" font-size="14.00">772eecc</text>
</g>
<!-- 772eecc93f3d9c775c62f9667cade808a49b11a1&#45;&gt;1cd909e05d33f0f6bc4ea1caf19b5749b434ceb3 -->
<g id="edge3" class="edge"><title>772eecc93f3d9c775c62f9667cade808a49b11a1&#45;&gt;1cd909e05d33f0f6bc4ea1caf19b5749b434ceb3</title>
<path fill="none" stroke="black" d="M43.0951,-72.055C41.7735,-64.3456 40.176,-55.0269 38.691,-46.3642"/>
<polygon fill="black" stroke="black" points="42.1009,-45.5401 36.9615,-36.2753 35.2015,-46.7229 42.1009,-45.5401"/>
</g>
<!-- 772eecc93f3d9c775c62f9667cade808a49b11a1&#45;&gt;4fa2aa96733ad000e2e14791e416c928052e865a -->
<g id="edge4" class="edge"><title>772eecc93f3d9c775c62f9667cade808a49b11a1&#45;&gt;4fa2aa96733ad000e2e14791e416c928052e865a</title>
<path fill="none" stroke="black" d="M62.0569,-73.811C72.1419,-64.2712 85.3221,-51.8035 96.5635,-41.1697"/>
<polygon fill="black" stroke="black" points="99.1149,-43.574 103.974,-34.1593 94.3045,-38.4887 99.1149,-43.574"/>
</g>
<!-- 15acd4c0640ae4aa1b3fa1f44d38bbc28f145120 -->
<g id="node6" class="node"><title>15acd4c0640ae4aa1b3fa1f44d38bbc28f145120</title>
<ellipse fill="#85d5fa" stroke="black" cx="46" cy="-162" rx="34" ry="18"/>
<text text-anchor="middle" x="46" y="-158.3" font-family="Times New Roman,serif" font-size="14.00">15acd4c</text>
</g>
<!-- 15acd4c0640ae4aa1b3fa1f44d38bbc28f145120&#45;&gt;772eecc93f3d9c775c62f9667cade808a49b11a1 -->
<g id="edge5" class="edge"><title>15acd4c0640ae4aa1b3fa1f44d38bbc28f145120&#45;&gt;772eecc93f3d9c775c62f9667cade808a49b11a1</title>
<path fill="none" stroke="black" d="M46,-143.697C46,-135.983 46,-126.712 46,-118.112"/>
<polygon fill="black" stroke="black" points="49.5001,-118.104 46,-108.104 42.5001,-118.104 49.5001,-118.104"/>
</g>
<!-- 5dc7848e27ac621b5b63dd10b7a16ec405d0e2ad -->
<g id="node7" class="node"><title>5dc7848e27ac621b5b63dd10b7a16ec405d0e2ad</title>
<ellipse fill="#85d5fa" stroke="black" cx="132" cy="-234" rx="34" ry="18"/>
<text text-anchor="middle" x="132" y="-230.3" font-family="Times New Roman,serif" font-size="14.00">5dc7848</text>
</g>
<!-- 5dc7848e27ac621b5b63dd10b7a16ec405d0e2ad&#45;&gt;13f45043c17ec5a98a8593724358e02bf638887b -->
<g id="edge6" class="edge"><title>5dc7848e27ac621b5b63dd10b7a16ec405d0e2ad&#45;&gt;13f45043c17ec5a98a8593724358e02bf638887b</title>
<path fill="none" stroke="black" d="M132,-215.697C132,-207.983 132,-198.712 132,-190.112"/>
<polygon fill="black" stroke="black" points="135.5,-190.104 132,-180.104 128.5,-190.104 135.5,-190.104"/>
</g>
<!-- 5dc7848e27ac621b5b63dd10b7a16ec405d0e2ad&#45;&gt;15acd4c0640ae4aa1b3fa1f44d38bbc28f145120 -->
<g id="edge7" class="edge"><title>5dc7848e27ac621b5b63dd10b7a16ec405d0e2ad&#45;&gt;15acd4c0640ae4aa1b3fa1f44d38bbc28f145120</title>
<path fill="none" stroke="black" d="M114.181,-218.496C101.958,-208.547 85.5438,-195.187 71.8837,-184.068"/>
<polygon fill="black" stroke="black" points="73.7615,-181.084 63.7964,-177.485 69.3426,-186.513 73.7615,-181.084"/>
</g>
<!-- master -->
<g id="node8" class="node"><title>master</title>
<ellipse fill="#9999ff" stroke="black" cx="89" cy="-306" rx="34" ry="18"/>
<text text-anchor="middle" x="89" y="-302.3" font-family="Times New Roman,serif" font-size="14.00">master</text>
</g>
<!-- master&#45;&gt;5dc7848e27ac621b5b63dd10b7a16ec405d0e2ad -->
<g id="edge8" class="edge"><title>master&#45;&gt;5dc7848e27ac621b5b63dd10b7a16ec405d0e2ad</title>
<path fill="none" stroke="black" d="M98.9731,-288.765C104.162,-280.317 110.623,-269.799 116.451,-260.312"/>
<polygon fill="black" stroke="black" points="119.53,-261.986 121.782,-251.633 113.566,-258.322 119.53,-261.986"/>
</g>
<!-- HEAD -->
<g id="node9" class="node"><title>HEAD</title>
<ellipse fill="#e6ccff" stroke="black" cx="46" cy="-234" rx="34" ry="18"/>
<text text-anchor="middle" x="46" y="-230.3" font-family="Times New Roman,serif" font-size="14.00">HEAD</text>
</g>
<!-- HEAD&#45;&gt;15acd4c0640ae4aa1b3fa1f44d38bbc28f145120 -->
<g id="edge9" class="edge"><title>HEAD&#45;&gt;15acd4c0640ae4aa1b3fa1f44d38bbc28f145120</title>
<path fill="none" stroke="black" d="M46,-215.697C46,-207.983 46,-198.712 46,-190.112"/>
<polygon fill="black" stroke="black" points="49.5001,-190.104 46,-180.104 42.5001,-190.104 49.5001,-190.104"/>
</g>
<!-- v1 -->
<g id="node10" class="node"><title>v1</title>
<ellipse fill="#ffc61a" stroke="black" cx="175" cy="-306" rx="34" ry="18"/>
<text text-anchor="middle" x="175" y="-302.3" font-family="Times New Roman,serif" font-size="14.00">v1</text>
</g>
<!-- v1&#45;&gt;5dc7848e27ac621b5b63dd10b7a16ec405d0e2ad -->
<g id="edge10" class="edge"><title>v1&#45;&gt;5dc7848e27ac621b5b63dd10b7a16ec405d0e2ad</title>
<path fill="none" stroke="black" d="M165.027,-288.765C159.838,-280.317 153.377,-269.799 147.549,-260.312"/>
<polygon fill="black" stroke="black" points="150.434,-258.322 142.218,-251.633 144.47,-261.986 150.434,-258.322"/>
</g>
</g>
</svg>
