<?xml version="1.0" encoding="UTF-8" standalone="no"?>
<!DOCTYPE svg PUBLIC "-//W3C//DTD SVG 1.1//EN"
 "http://www.w3.org/Graphics/SVG/1.1/DTD/svg11.dtd">
<!-- Generated by graphviz version 2.36.0 (20140111.2315)
 -->
<!-- Title: auto Pages: 1 -->
<svg width="448pt" height="692pt"
 viewBox="0.00 0.00 448.00 692.00" xmlns="http://www.w3.org/2000/svg" xmlns:xlink="http://www.w3.org/1999/xlink">
<g id="graph0" class="graph" transform="scale(1 1) rotate(0) translate(4 688)">
<title>auto</title>
<!-- 0c213d3ee3c6dd438e02ea8f465548f8dd56288b -->
<g id="node1" class="node"><title>0c213d3ee3c6dd438e02ea8f465548f8dd56288b</title>
<ellipse fill="#9ccc66" stroke="black" cx="70" cy="-18" rx="34" ry="18"/>
<text text-anchor="middle" x="70" y="-14.3" font-family="Times New Roman,serif" font-size="14.00">0c213d3</text>
</g>
<!-- 54378aec6a6ea34638ac687217745e574360285e -->
<g id="node2" class="node"><title>54378aec6a6ea34638ac687217745e574360285e</title>
<ellipse fill="#9ccc66" stroke="black" cx="366" cy="-18" rx="34" ry="18"/>
<text text-anchor="middle" x="366" y="-14.3" font-family="Times New Roman,serif" font-size="14.00">54378ae</text>
</g>
<!-- ecf7586c0df1003ea0a3efa5a00dc3ceaac570f8 -->
<g id="node3" class="node"><title>ecf7586c0df1003ea0a3efa5a00dc3ceaac570f8</title>
<ellipse fill="#9ccc66" stroke="black" cx="156" cy="-90" rx="34" ry="18"/>
<text text-anchor="middle" x="156" y="-86.3" font-family="Times New Roman,serif" font-size="14.00">ecf7586</text>
</g>
<!-- f9f2794a3dae393bdb07affde1719aee32e6c236 -->
<g id="node4" class="node"><title>f9f2794a3dae393bdb07affde1719aee32e6c236</title>
<ellipse fill="#9ccc66" stroke="black" cx="280" cy="-90" rx="34" ry="18"/>
<text text-anchor="middle" x="280" y="-86.3" font-family="Times New Roman,serif" font-size="14.00">f9f2794</text>
</g>
<!-- 0241c07298c9b2bb84793a02418716f302632564 -->
<g id="node5" class="node"><title>0241c07298c9b2bb84793a02418716f302632564</title>
<ellipse fill="#bc9b8f" stroke="black" cx="206" cy="-162" rx="34" ry="18"/>
<text text-anchor="middle" x="206" y="-158.3" font-family="Times New Roman,serif" font-size="14.00">0241c07</text>
</g>
<!-- 0241c07298c9b2bb84793a02418716f302632564&#45;&gt;54378aec6a6ea34638ac687217745e574360285e -->
<g id="edge3" class="edge"><title>0241c07298c9b2bb84793a02418716f302632564&#45;&gt;54378aec6a6ea34638ac687217745e574360285e</title>
<path fill="none" stroke="black" d="M207.771,-143.756C210.657,-124.052 218.101,-91.9607 237,-72 260.054,-47.6501 295.918,-34.1348 323.985,-26.8578"/>
<polygon fill="black" stroke="black" points="325.038,-30.2041 333.934,-24.4505 323.392,-23.4004 325.038,-30.2041"/>
</g>
<!-- 0241c07298c9b2bb84793a02418716f302632564&#45;&gt;f9f2794a3dae393bdb07affde1719aee32e6c236 -->
<g id="edge2" class="edge"><title>0241c07298c9b2bb84793a02418716f302632564&#45;&gt;f9f2794a3dae393bdb07affde1719aee32e6c236</title>
<path fill="none" stroke="black" d="M222.057,-145.811C232.142,-136.271 245.322,-123.803 256.564,-113.17"/>
<polygon fill="black" stroke="black" points="259.115,-115.574 263.974,-106.159 254.305,-110.489 259.115,-115.574"/>
</g>
<!-- 2358d7dee4b70234fb7078d735a835673dc4b45b -->
<g id="node6" class="node"><title>2358d7dee4b70234fb7078d735a835673dc4b45b</title>
<ellipse fill="#bc9b8f" stroke="black" cx="70" cy="-90" rx="34" ry="18"/>
<text text-anchor="middle" x="70" y="-86.3" font-family="Times New Roman,serif" font-size="14.00">2358d7d</text>
</g>
<!-- 0241c07298c9b2bb84793a02418716f302632564&#45;&gt;2358d7dee4b70234fb7078d735a835673dc4b45b -->
<g id="edge1" class="edge"><title>0241c07298c9b2bb84793a02418716f302632564&#45;&gt;2358d7dee4b70234fb7078d735a835673dc4b45b</title>
<path fill="none" stroke="black" d="M182.311,-148.807C160.176,-137.414 126.948,-120.312 102.372,-107.662"/>
<polygon fill="black" stroke="black" points="103.911,-104.518 93.4179,-103.053 100.708,-110.742 103.911,-104.518"/>
</g>
<!-- 2358d7dee4b70234fb7078d735a835673dc4b45b&#45;&gt;0c213d3ee3c6dd438e02ea8f465548f8dd56288b -->
<g id="edge4" class="edge"><title>2358d7dee4b70234fb7078d735a835673dc4b45b&#45;&gt;0c213d3ee3c6dd438e02ea8f465548f8dd56288b</title>
<path fill="none" stroke="black" d="M70,-71.6966C70,-63.9827 70,-54.7125 70,-46.1124"/>
<polygon fill="black" stroke="black" points="73.5001,-46.1043 70,-36.1043 66.5001,-46.1044 73.5001,-46.1043"/>
</g>
<!-- 6e414aa7e6b2bb6f8bd9fcc652ecd7a349547f92 -->
<g id="node7" class="node"><title>6e414aa7e6b2bb6f8bd9fcc652ecd7a349547f92</title>
<ellipse fill="#bc9b8f" stroke="black" cx="366" cy="-90" rx="34" ry="18"/>
<text text-anchor="middle" x="366" y="-86.3" font-family="Times New Roman,serif" font-size="14.00">6e414aa</text>
</g>
<!-- 6e414aa7e6b2bb6f8bd9fcc652ecd7a349547f92&#45;&gt;54378aec6a6ea34638ac687217745e574360285e -->
<g id="edge5" class="edge"><title>6e414aa7e6b2bb6f8bd9fcc652ecd7a349547f92&#45;&gt;54378aec6a6ea34638ac687217745e574360285e</title>
<path fill="none" stroke="black" d="M366,-71.6966C366,-63.9827 366,-54.7125 366,-46.1124"/>
<polygon fill="black" stroke="black" points="369.5,-46.1043 366,-36.1043 362.5,-46.1044 369.5,-46.1043"/>
</g>
<!-- 737c972823aec2a30e726cd39821edf8d4b4826b -->
<g id="node8" class="node"><title>737c972823aec2a30e726cd39821edf8d4b4826b</title>
<ellipse fill="#bc9b8f" stroke="black" cx="292" cy="-162" rx="34" ry="18"/>
<text text-anchor="middle" x="292" y="-158.3" font-family="Times New Roman,serif" font-size="14.00">737c972</text>
</g>
<!-- 737c972823aec2a30e726cd39821edf8d4b4826b&#45;&gt;ecf7586c0df1003ea0a3efa5a00dc3ceaac570f8 -->
<g id="edge7" class="edge"><title>737c972823aec2a30e726cd39821edf8d4b4826b&#45;&gt;ecf7586c0df1003ea0a3efa5a00dc3ceaac570f8</title>
<path fill="none" stroke="black" d="M268.311,-148.807C246.176,-137.414 212.948,-120.312 188.372,-107.662"/>
<polygon fill="black" stroke="black" points="189.911,-104.518 179.418,-103.053 186.708,-110.742 189.911,-104.518"/>
</g>
<!-- 737c972823aec2a30e726cd39821edf8d4b4826b&#45;&gt;6e414aa7e6b2bb6f8bd9fcc652ecd7a349547f92 -->
<g id="edge6" class="edge"><title>737c972823aec2a30e726cd39821edf8d4b4826b&#45;&gt;6e414aa7e6b2bb6f8bd9fcc652ecd7a349547f92</title>
<path fill="none" stroke="black" d="M308.057,-145.811C318.142,-136.271 331.322,-123.803 342.564,-113.17"/>
<polygon fill="black" stroke="black" points="345.115,-115.574 349.974,-106.159 340.305,-110.489 345.115,-115.574"/>
</g>
<!-- 8e26413dad1890d45502dd31a75f9c403eee2fef -->
<g id="node9" class="node"><title>8e26413dad1890d45502dd31a75f9c403eee2fef</title>
<ellipse fill="#bc9b8f" stroke="black" cx="378" cy="-162" rx="34" ry="18"/>
<text text-anchor="middle" x="378" y="-158.3" font-family="Times New Roman,serif" font-size="14.00">8e26413</text>
</g>
<!-- 8e26413dad1890d45502dd31a75f9c403eee2fef&#45;&gt;54378aec6a6ea34638ac687217745e574360285e -->
<g id="edge10" class="edge"><title>8e26413dad1890d45502dd31a75f9c403eee2fef&#45;&gt;54378aec6a6ea34638ac687217745e574360285e</title>
<path fill="none" stroke="black" d="M390.503,-144.842C397.438,-134.834 405.376,-121.375 409,-108 413.185,-92.5569 414.348,-87.0798 409,-72 404.998,-60.7139 397.454,-50.0789 389.788,-41.3397"/>
<polygon fill="black" stroke="black" points="392.2,-38.7946 382.813,-33.8827 387.088,-43.5766 392.2,-38.7946"/>
</g>
<!-- 8e26413dad1890d45502dd31a75f9c403eee2fef&#45;&gt;f9f2794a3dae393bdb07affde1719aee32e6c236 -->
<g id="edge9" class="edge"><title>8e26413dad1890d45502dd31a75f9c403eee2fef&#45;&gt;f9f2794a3dae393bdb07affde1719aee32e6c236</title>
<path fill="none" stroke="black" d="M358.638,-147.17C344.236,-136.883 324.362,-122.687 308.197,-111.141"/>
<polygon fill="black" stroke="black" points="309.829,-108.005 299.657,-105.041 305.76,-113.701 309.829,-108.005"/>
</g>
<!-- 8e26413dad1890d45502dd31a75f9c403eee2fef&#45;&gt;6e414aa7e6b2bb6f8bd9fcc652ecd7a349547f92 -->
<g id="edge8" class="edge"><title>8e26413dad1890d45502dd31a75f9c403eee2fef&#45;&gt;6e414aa7e6b2bb6f8bd9fcc652ecd7a349547f92</title>
<path fill="none" stroke="black" d="M375.095,-144.055C373.774,-136.346 372.176,-127.027 370.691,-118.364"/>
<polygon fill="black" stroke="black" points="374.101,-117.54 368.961,-108.275 367.202,-118.723 374.101,-117.54"/>
</g>
<!-- e04c9e73c27f423fecb1d8220c4a4b5ca217f2de -->
<g id="node10" class="node"><title>e04c9e73c27f423fecb1d8220c4a4b5ca217f2de</title>
<ellipse fill="#bc9b8f" stroke="black" cx="120" cy="-162" rx="34" ry="18"/>
<text text-anchor="middle" x="120" y="-158.3" font-family="Times New Roman,serif" font-size="14.00">e04c9e7</text>
</g>
<!-- e04c9e73c27f423fecb1d8220c4a4b5ca217f2de&#45;&gt;ecf7586c0df1003ea0a3efa5a00dc3ceaac570f8 -->
<g id="edge12" class="edge"><title>e04c9e73c27f423fecb1d8220c4a4b5ca217f2de&#45;&gt;ecf7586c0df1003ea0a3efa5a00dc3ceaac570f8</title>
<path fill="none" stroke="black" d="M128.531,-144.411C132.836,-136.042 138.149,-125.71 142.953,-116.37"/>
<polygon fill="black" stroke="black" points="146.069,-117.964 147.53,-107.47 139.844,-114.762 146.069,-117.964"/>
</g>
<!-- e04c9e73c27f423fecb1d8220c4a4b5ca217f2de&#45;&gt;2358d7dee4b70234fb7078d735a835673dc4b45b -->
<g id="edge11" class="edge"><title>e04c9e73c27f423fecb1d8220c4a4b5ca217f2de&#45;&gt;2358d7dee4b70234fb7078d735a835673dc4b45b</title>
<path fill="none" stroke="black" d="M108.403,-144.765C102.156,-136.018 94.3227,-125.052 87.3631,-115.308"/>
<polygon fill="black" stroke="black" points="90.1943,-113.25 81.5338,-107.147 84.4981,-117.319 90.1943,-113.25"/>
</g>
<!-- 01ccfc8a7031f57c92a694c727fc16a1b6f6a3c8 -->
<g id="node11" class="node"><title>01ccfc8a7031f57c92a694c727fc16a1b6f6a3c8</title>
<ellipse fill="#85d5fa" stroke="black" cx="301" cy="-306" rx="34" ry="18"/>
<text text-anchor="middle" x="301" y="-302.3" font-family="Times New Roman,serif" font-size="14.00">01ccfc8</text>
</g>
<!-- 01ccfc8a7031f57c92a694c727fc16a1b6f6a3c8&#45;&gt;8e26413dad1890d45502dd31a75f9c403eee2fef -->
<g id="edge13" class="edge"><title>01ccfc8a7031f57c92a694c727fc16a1b6f6a3c8&#45;&gt;8e26413dad1890d45502dd31a75f9c403eee2fef</title>
<path fill="none" stroke="black" d="M312.243,-288.605C319.133,-278.29 327.953,-264.592 335,-252 346.597,-231.279 358.22,-206.955 366.453,-188.978"/>
<polygon fill="black" stroke="black" points="369.715,-190.259 370.656,-179.706 363.34,-187.369 369.715,-190.259"/>
</g>
<!-- e53574e083bfb447086df95ad1214d87b6ae45c4 -->
<g id="node12" class="node"><title>e53574e083bfb447086df95ad1214d87b6ae45c4</title>
<ellipse fill="#85d5fa" stroke="black" cx="292" cy="-234" rx="34" ry="18"/>
<text text-anchor="middle" x="292" y="-230.3" font-family="Times New Roman,serif" font-size="14.00">e53574e</text>
</g>
<!-- 01ccfc8a7031f57c92a694c727fc16a1b6f6a3c8&#45;&gt;e53574e083bfb447086df95ad1214d87b6ae45c4 -->
<g id="edge14" class="edge"><title>01ccfc8a7031f57c92a694c727fc16a1b6f6a3c8&#45;&gt;e53574e083bfb447086df95ad1214d87b6ae45c4</title>
<path fill="none" stroke="black" d="M298.775,-287.697C297.783,-279.983 296.592,-270.712 295.486,-262.112"/>
<polygon fill="black" stroke="black" points="298.946,-261.576 294.199,-252.104 292.003,-262.469 298.946,-261.576"/>
</g>
<!-- e53574e083bfb447086df95ad1214d87b6ae45c4&#45;&gt;737c972823aec2a30e726cd39821edf8d4b4826b -->
<g id="edge20" class="edge"><title>e53574e083bfb447086df95ad1214d87b6ae45c4&#45;&gt;737c972823aec2a30e726cd39821edf8d4b4826b</title>
<path fill="none" stroke="black" d="M292,-215.697C292,-207.983 292,-198.712 292,-190.112"/>
<polygon fill="black" stroke="black" points="295.5,-190.104 292,-180.104 288.5,-190.104 295.5,-190.104"/>
</g>
<!-- 3447a63ea27b15856a751c3f631546ad6c98d07a -->
<g id="node13" class="node"><title>3447a63ea27b15856a751c3f631546ad6c98d07a</title>
<ellipse fill="#85d5fa" stroke="black" cx="206" cy="-378" rx="34" ry="18"/>
<text text-anchor="middle" x="206" y="-374.3" font-family="Times New Roman,serif" font-size="14.00">3447a63</text>
</g>
<!-- 3447a63ea27b15856a751c3f631546ad6c98d07a&#45;&gt;0241c07298c9b2bb84793a02418716f302632564 -->
<g id="edge15" class="edge"><title>3447a63ea27b15856a751c3f631546ad6c98d07a&#45;&gt;0241c07298c9b2bb84793a02418716f302632564</title>
<path fill="none" stroke="black" d="M206,-359.849C206,-322.832 206,-235.181 206,-190.386"/>
<polygon fill="black" stroke="black" points="209.5,-190.232 206,-180.232 202.5,-190.232 209.5,-190.232"/>
</g>
<!-- 3447a63ea27b15856a751c3f631546ad6c98d07a&#45;&gt;01ccfc8a7031f57c92a694c727fc16a1b6f6a3c8 -->
<g id="edge17" class="edge"><title>3447a63ea27b15856a751c3f631546ad6c98d07a&#45;&gt;01ccfc8a7031f57c92a694c727fc16a1b6f6a3c8</title>
<path fill="none" stroke="black" d="M225.225,-362.834C239.131,-352.587 258.122,-338.594 273.613,-327.18"/>
<polygon fill="black" stroke="black" points="275.83,-329.894 281.804,-321.144 271.677,-324.259 275.83,-329.894"/>
</g>
<!-- c99b3621c6f61f36a468d9da2f2f4cb6c2c7f834 -->
<g id="node14" class="node"><title>c99b3621c6f61f36a468d9da2f2f4cb6c2c7f834</title>
<ellipse fill="#85d5fa" stroke="black" cx="120" cy="-306" rx="34" ry="18"/>
<text text-anchor="middle" x="120" y="-302.3" font-family="Times New Roman,serif" font-size="14.00">c99b362</text>
</g>
<!-- 3447a63ea27b15856a751c3f631546ad6c98d07a&#45;&gt;c99b3621c6f61f36a468d9da2f2f4cb6c2c7f834 -->
<g id="edge16" class="edge"><title>3447a63ea27b15856a751c3f631546ad6c98d07a&#45;&gt;c99b3621c6f61f36a468d9da2f2f4cb6c2c7f834</title>
<path fill="none" stroke="black" d="M188.181,-362.496C175.958,-352.547 159.544,-339.187 145.884,-328.068"/>
<polygon fill="black" stroke="black" points="147.762,-325.084 137.796,-321.485 143.343,-330.513 147.762,-325.084"/>
</g>
<!-- c99b3621c6f61f36a468d9da2f2f4cb6c2c7f834&#45;&gt;e04c9e73c27f423fecb1d8220c4a4b5ca217f2de -->
<g id="edge18" class="edge"><title>c99b3621c6f61f36a468d9da2f2f4cb6c2c7f834&#45;&gt;e04c9e73c27f423fecb1d8220c4a4b5ca217f2de</title>
<path fill="none" stroke="black" d="M120,-287.871C120,-263.67 120,-219.211 120,-190.393"/>
<polygon fill="black" stroke="black" points="123.5,-190.189 120,-180.189 116.5,-190.189 123.5,-190.189"/>
</g>
<!-- c99b3621c6f61f36a468d9da2f2f4cb6c2c7f834&#45;&gt;e53574e083bfb447086df95ad1214d87b6ae45c4 -->
<g id="edge19" class="edge"><title>c99b3621c6f61f36a468d9da2f2f4cb6c2c7f834&#45;&gt;e53574e083bfb447086df95ad1214d87b6ae45c4</title>
<path fill="none" stroke="black" d="M146.123,-294.369C175.506,-282.41 223.401,-262.918 256.242,-249.553"/>
<polygon fill="black" stroke="black" points="257.97,-252.628 265.913,-245.617 255.332,-246.144 257.97,-252.628"/>
</g>
<!-- idea1 -->
<g id="node15" class="node"><title>idea1</title>
<ellipse fill="#9999ff" stroke="black" cx="363" cy="-378" rx="34" ry="18"/>
<text text-anchor="middle" x="363" y="-374.3" font-family="Times New Roman,serif" font-size="14.00">idea1</text>
</g>
<!-- idea1&#45;&gt;01ccfc8a7031f57c92a694c727fc16a1b6f6a3c8 -->
<g id="edge21" class="edge"><title>idea1&#45;&gt;01ccfc8a7031f57c92a694c727fc16a1b6f6a3c8</title>
<path fill="none" stroke="black" d="M349.24,-361.465C341.053,-352.221 330.513,-340.321 321.374,-330.003"/>
<polygon fill="black" stroke="black" points="323.972,-327.657 314.721,-322.492 318.732,-332.298 323.972,-327.657"/>
</g>
<!-- idea2 -->
<g id="node16" class="node"><title>idea2</title>
<ellipse fill="#9999ff" stroke="black" cx="120" cy="-378" rx="34" ry="18"/>
<text text-anchor="middle" x="120" y="-374.3" font-family="Times New Roman,serif" font-size="14.00">idea2</text>
</g>
<!-- idea2&#45;&gt;c99b3621c6f61f36a468d9da2f2f4cb6c2c7f834 -->
<g id="edge22" class="edge"><title>idea2&#45;&gt;c99b3621c6f61f36a468d9da2f2f4cb6c2c7f834</title>
<path fill="none" stroke="black" d="M120,-359.697C120,-351.983 120,-342.712 120,-334.112"/>
<polygon fill="black" stroke="black" points="123.5,-334.104 120,-324.104 116.5,-334.104 123.5,-334.104"/>
</g>
<!-- master -->
<g id="node17" class="node"><title>master</title>
<ellipse fill="#9999ff" stroke="black" cx="196" cy="-450" rx="34" ry="18"/>
<text text-anchor="middle" x="196" y="-446.3" font-family="Times New Roman,serif" font-size="14.00">master</text>
</g>
<!-- master&#45;&gt;3447a63ea27b15856a751c3f631546ad6c98d07a -->
<g id="edge23" class="edge"><title>master&#45;&gt;3447a63ea27b15856a751c3f631546ad6c98d07a</title>
<path fill="none" stroke="black" d="M198.472,-431.697C199.574,-423.983 200.898,-414.712 202.127,-406.112"/>
<polygon fill="black" stroke="black" points="205.607,-406.499 203.557,-396.104 198.677,-405.509 205.607,-406.499"/>
</g>
<!-- HEAD -->
<g id="node18" class="node"><title>HEAD</title>
<ellipse fill="#e6ccff" stroke="black" cx="406" cy="-450" rx="34" ry="18"/>
<text text-anchor="middle" x="406" y="-446.3" font-family="Times New Roman,serif" font-size="14.00">HEAD</text>
</g>
<!-- HEAD&#45;&gt;idea1 -->
<g id="edge24" class="edge"><title>HEAD&#45;&gt;idea1</title>
<path fill="none" stroke="black" d="M396.027,-432.765C390.838,-424.317 384.377,-413.799 378.549,-404.312"/>
<polygon fill="black" stroke="black" points="381.434,-402.322 373.218,-395.633 375.47,-405.986 381.434,-402.322"/>
</g>
<!-- origin/idea1 -->
<g id="node19" class="node"><title>origin/idea1</title>
<ellipse fill="#ffa366" stroke="black" cx="320" cy="-450" rx="34" ry="18"/>
<text text-anchor="middle" x="320" y="-446.3" font-family="Times New Roman,serif" font-size="14.00">idea1</text>
</g>
<!-- origin/idea1&#45;&gt;01ccfc8a7031f57c92a694c727fc16a1b6f6a3c8 -->
<g id="edge25" class="edge"><title>origin/idea1&#45;&gt;01ccfc8a7031f57c92a694c727fc16a1b6f6a3c8</title>
<path fill="none" stroke="black" d="M317.708,-431.871C314.47,-407.67 308.521,-363.211 304.665,-334.393"/>
<polygon fill="black" stroke="black" points="308.095,-333.637 303.3,-324.189 301.157,-334.565 308.095,-333.637"/>
</g>
<!-- origin/idea1&#45;&gt;idea1 -->
<g id="edge34" class="edge"><title>origin/idea1&#45;&gt;idea1</title>
<path fill="none" stroke="black" d="M329.973,-432.765C335.162,-424.317 341.623,-413.799 347.451,-404.312"/>
<polygon fill="black" stroke="black" points="350.53,-405.986 352.782,-395.633 344.566,-402.322 350.53,-405.986"/>
</g>
<!-- origin/master -->
<g id="node20" class="node"><title>origin/master</title>
<ellipse fill="#ffa366" stroke="black" cx="227" cy="-522" rx="34" ry="18"/>
<text text-anchor="middle" x="227" y="-518.3" font-family="Times New Roman,serif" font-size="14.00">master</text>
</g>
<!-- origin/master&#45;&gt;3447a63ea27b15856a751c3f631546ad6c98d07a -->
<g id="edge26" class="edge"><title>origin/master&#45;&gt;3447a63ea27b15856a751c3f631546ad6c98d07a</title>
<path fill="none" stroke="black" d="M233.259,-504.304C239.127,-486.196 246.028,-456.585 239,-432 236.125,-421.945 230.73,-411.94 225.122,-403.377"/>
<polygon fill="black" stroke="black" points="227.892,-401.23 219.299,-395.033 222.152,-405.236 227.892,-401.23"/>
</g>
<!-- origin/master&#45;&gt;master -->
<g id="edge35" class="edge"><title>origin/master&#45;&gt;master</title>
<path fill="none" stroke="black" d="M219.653,-504.411C216.077,-496.335 211.691,-486.431 207.671,-477.355"/>
<polygon fill="black" stroke="black" points="210.759,-475.682 203.509,-467.956 204.358,-478.517 210.759,-475.682"/>
</g>
<!-- origin/HEAD -->
<g id="node21" class="node"><title>origin/HEAD</title>
<ellipse fill="#ffbeb3" stroke="black" cx="258" cy="-594" rx="34" ry="18"/>
<text text-anchor="middle" x="258" y="-590.3" font-family="Times New Roman,serif" font-size="14.00">HEAD</text>
</g>
<!-- origin/HEAD&#45;&gt;origin/master -->
<g id="edge27" class="edge"><title>origin/HEAD&#45;&gt;origin/master</title>
<path fill="none" stroke="black" d="M250.653,-576.411C247.077,-568.335 242.691,-558.431 238.671,-549.355"/>
<polygon fill="black" stroke="black" points="241.759,-547.682 234.509,-539.956 235.358,-550.517 241.759,-547.682"/>
</g>
<!-- origin -->
<g id="node22" class="node"><title>origin</title>
<ellipse fill="#ff6666" stroke="black" cx="258" cy="-666" rx="34" ry="18"/>
<text text-anchor="middle" x="258" y="-662.3" font-family="Times New Roman,serif" font-size="14.00">origin</text>
</g>
<!-- origin&#45;&gt;origin/idea1 -->
<g id="edge28" class="edge"><title>origin&#45;&gt;origin/idea1</title>
<path fill="none" stroke="black" d="M274.21,-649.883C283.674,-640.049 294.916,-626.409 301,-612 319.591,-567.972 321.878,-511.517 321.311,-478.491"/>
<polygon fill="black" stroke="black" points="324.803,-478.141 321.029,-468.241 317.806,-478.334 324.803,-478.141"/>
</g>
<!-- origin&#45;&gt;origin/master -->
<g id="edge29" class="edge"><title>origin&#45;&gt;origin/master</title>
<path fill="none" stroke="black" d="M241.187,-650.117C231.497,-640.371 220.228,-626.741 215,-612 207.822,-591.761 211.842,-567.537 217.088,-549.475"/>
<polygon fill="black" stroke="black" points="220.442,-550.475 220.153,-539.884 213.775,-548.344 220.442,-550.475"/>
</g>
<!-- origin&#45;&gt;origin/HEAD -->
<g id="edge30" class="edge"><title>origin&#45;&gt;origin/HEAD</title>
<path fill="none" stroke="black" d="M258,-647.697C258,-639.983 258,-630.712 258,-622.112"/>
<polygon fill="black" stroke="black" points="261.5,-622.104 258,-612.104 254.5,-622.104 261.5,-622.104"/>
</g>
<!-- b7cd4c5e269572826551e2358805684d23e9b187 -->
<g id="node23" class="node"><title>b7cd4c5e269572826551e2358805684d23e9b187</title>
<ellipse fill="#ffdf80" stroke="black" cx="110" cy="-450" rx="34" ry="18"/>
<text text-anchor="middle" x="110" y="-446.3" font-family="Times New Roman,serif" font-size="14.00">b7cd4c5</text>
</g>
<!-- b7cd4c5e269572826551e2358805684d23e9b187&#45;&gt;3447a63ea27b15856a751c3f631546ad6c98d07a -->
<g id="edge31" class="edge"><title>b7cd4c5e269572826551e2358805684d23e9b187&#45;&gt;3447a63ea27b15856a751c3f631546ad6c98d07a</title>
<path fill="none" stroke="black" d="M129.427,-434.834C143.573,-424.52 162.924,-410.41 178.633,-398.955"/>
<polygon fill="black" stroke="black" points="180.912,-401.625 186.929,-392.906 176.787,-395.969 180.912,-401.625"/>
</g>
<!-- v0.0.1 -->
<g id="node24" class="node"><title>v0.0.1</title>
<ellipse fill="#ffc61a" stroke="black" cx="34" cy="-378" rx="34" ry="18"/>
<text text-anchor="middle" x="34" y="-374.3" font-family="Times New Roman,serif" font-size="14.00">v0.0.1</text>
</g>
<!-- v0.0.1&#45;&gt;c99b3621c6f61f36a468d9da2f2f4cb6c2c7f834 -->
<g id="edge32" class="edge"><title>v0.0.1&#45;&gt;c99b3621c6f61f36a468d9da2f2f4cb6c2c7f834</title>
<path fill="none" stroke="black" d="M51.8193,-362.496C64.0422,-352.547 80.4562,-339.187 94.1163,-328.068"/>
<polygon fill="black" stroke="black" points="96.6574,-330.513 102.204,-321.485 92.2385,-325.084 96.6574,-330.513"/>
</g>
<!-- v0.0.2 -->
<g id="node25" class="node"><title>v0.0.2</title>
<ellipse fill="#ffc61a" stroke="black" cx="110" cy="-522" rx="34" ry="18"/>
<text text-anchor="middle" x="110" y="-518.3" font-family="Times New Roman,serif" font-size="14.00">v0.0.2</text>
</g>
<!-- v0.0.2&#45;&gt;b7cd4c5e269572826551e2358805684d23e9b187 -->
<g id="edge33" class="edge"><title>v0.0.2&#45;&gt;b7cd4c5e269572826551e2358805684d23e9b187</title>
<path fill="none" stroke="black" d="M110,-503.697C110,-495.983 110,-486.712 110,-478.112"/>
<polygon fill="black" stroke="black" points="113.5,-478.104 110,-468.104 106.5,-478.104 113.5,-478.104"/>
</g>
</g>
</svg>
